HIERARCHY
ROOT Bip001_Pelvis
{
  OFFSET 34.4345 95.6767 -26.8758
  CHANNELS 6 Xposition Yposition Zposition Zrotation Xrotation Yrotation
  JOINT Bip001_Spine
  {
    OFFSET 1.4188e-005 10.2191 -0.0116013
    CHANNELS 3 Zrotation Xrotation Yrotation
    JOINT Bip001_L_Thigh
    {
      OFFSET 11.0458 -10.2192 0.0116197
      CHANNELS 3 Zrotation Xrotation Yrotation
      JOINT Bip001_L_Calf
      {
        OFFSET -0.707118 -44.0221 0.360014
        CHANNELS 3 Zrotation Xrotation Yrotation
        JOINT Bip001_L_Foot
        {
          OFFSET -0.651902 -40.5938 -3.56146
          CHANNELS 3 Zrotation Xrotation Yrotation
          JOINT Bip001_L_Toe0
          {
            OFFSET 0.0530839 -10.2181 13.1504
            CHANNELS 3 Zrotation Xrotation Yrotation
            End Site
            {
              OFFSET -1.02532e-005 0 7.55606
            }
          }
        }
      }
    }
    JOINT Bip001_R_Thigh
    {
      OFFSET -11.0458 -10.2191 0.0115893
      CHANNELS 3 Zrotation Xrotation Yrotation
      JOINT Bip001_R_Calf
      {
        OFFSET 0.706994 -44.0221 0.35984
        CHANNELS 3 Zrotation Xrotation Yrotation
        JOINT Bip001_R_Foot
        {
          OFFSET 0.651786 -40.5938 -3.5613
          CHANNELS 3 Zrotation Xrotation Yrotation
          JOINT Bip001_R_Toe0
          {
            OFFSET -0.0531479 -10.2181 13.1504
            CHANNELS 3 Zrotation Xrotation Yrotation
            End Site
            {
              OFFSET -1.02894e-005 0 7.55606
            }
          }
        }
      }
    }
    JOINT Bip001_Spine1
    {
      OFFSET 1.87041e-005 14.5736 1.08638
      CHANNELS 3 Zrotation Xrotation Yrotation
      JOINT Bip001_Spine2
      {
        OFFSET 2.24614e-005 14.5058 -1.69078
        CHANNELS 3 Zrotation Xrotation Yrotation
        JOINT Bip001_Neck
        {
          OFFSET 2.20278e-005 15.3945 -0.489414
          CHANNELS 3 Zrotation Xrotation Yrotation
          JOINT Bip001_L_Clavicle
          {
            OFFSET 6.06036 -0.000579998 0.00836775
            CHANNELS 3 Zrotation Xrotation Yrotation
            JOINT Bip001_L_UpperArm
            {
              OFFSET 11.5509 -0.0600302 0.00193952
              CHANNELS 3 Zrotation Xrotation Yrotation
              JOINT Bip001_L_Forearm
              {
                OFFSET 25.9523 0.0806089 -2.15551
                CHANNELS 3 Zrotation Xrotation Yrotation
                JOINT Bip001_L_Hand
                {
                  OFFSET 32.2475 0.153767 1.63968
                  CHANNELS 3 Zrotation Xrotation Yrotation
                  JOINT Bip001_L_Finger0
                  {
                    OFFSET 6.04639 -2.20976 5.90322
                    CHANNELS 3 Zrotation Xrotation Yrotation
                    End Site
                    {
                      OFFSET 4.22375 -1.43895 0.606485
                    }
                  }
                  JOINT Bip001_L_Finger1
                  {
                    OFFSET 11.0826 -0.704819 -0.198153
                    CHANNELS 3 Zrotation Xrotation Yrotation
                    End Site
                    {
                      OFFSET 6.20027 -0.397518 -0.0787166
                    }
                  }
                }
              }
            }
          }
          JOINT Bip001_R_Clavicle
          {
            OFFSET -6.06037 -0.000563197 0.00835105
            CHANNELS 3 Zrotation Xrotation Yrotation
            JOINT Bip001_R_UpperArm
            {
              OFFSET -11.5509 -0.0599978 0.00190698
              CHANNELS 3 Zrotation Xrotation Yrotation
              JOINT Bip001_R_Forearm
              {
                OFFSET -25.9523 0.0806822 -2.15589
                CHANNELS 3 Zrotation Xrotation Yrotation
                JOINT Bip001_R_Hand
                {
                  OFFSET -32.2475 0.153859 1.63989
                  CHANNELS 3 Zrotation Xrotation Yrotation
                  JOINT Bip001_R_Finger0
                  {
                    OFFSET -6.04641 -2.20976 5.90317
                    CHANNELS 3 Zrotation Xrotation Yrotation
                    End Site
                    {
                      OFFSET -4.22376 -1.43895 0.60647
                    }
                  }
                  JOINT Bip001_R_Finger1
                  {
                    OFFSET -11.0826 -0.704794 -0.198182
                    CHANNELS 3 Zrotation Xrotation Yrotation
                    End Site
                    {
                      OFFSET -6.20028 -0.397504 -0.0787333
                    }
                  }
                }
              }
            }
          }
          JOINT Bip001_Head
          {
            OFFSET 1.09673e-005 11.2744 2.05948
            CHANNELS 3 Zrotation Xrotation Yrotation
            End Site
            {
              OFFSET 2.89576e-005 20.8808 -2.77728e-005
            }
          }
        }
      }
    }
  }
}
MOTION
Frames:	8
Frame Time:	0.04
33.585 95.9754 -27.9143 0.662493 -0.20155 1.54175 -0.331949 2.04818 -0.086996 4.49438 -2.07191 5.38033 -0.550802 6.02353 -5.10539 1.96536 -4.2349 -0.00166698 0.830834 -3.60927 -0.43423 -3.72507 -2.69941 -0.912167 0.22015 10.2005 0.116213 -5.72536 -9.28998 1.56699 2.22668 -7.53256 2.26741 -0.662075 4.11534 -0.162111 -0.661736 4.11534 -0.162134 1.94203 -7.81462 -2.57264 -26.1839 8.11366 1.88391 -58.1496 43.6793 3.7132 16.8907 3.16542 -20.5393 9.17903 1.37197 -4.6507 -3.18055e-015 3.18055e-015 1.59028e-015 -0 0 1.59028e-015 22.24 15.8547 20.6461 59.6422 29.931 -3.36887 -12.2756 19.9216 13.4737 -11.3721 -1.92519 7.19512 -9.54166e-015 -3.18055e-015 2.38542e-015 -9.54166e-015 0 1.59028e-015 -1.8491 -6.44334 -1.73723 
33.5919 95.9856 -27.8709 0.716147 -0.247458 1.54714 -0.336773 2.06143 -0.105598 4.41894 -1.95787 5.45381 -0.49126 5.93001 -5.09374 1.84628 -4.21808 -0.00166695 0.874958 -3.53394 -0.456894 -3.78976 -2.62299 -0.998209 0.227851 10.1825 0.122577 -5.68189 -9.30862 1.63682 2.22639 -7.52709 2.26683 -0.669644 4.12345 -0.206668 -0.669815 4.12345 -0.206658 1.83659 -7.86645 -2.46281 -26.0841 8.16965 1.96444 -58.289 43.7641 3.67257 17.0434 3.20818 -20.438 9.35467 1.43272 -4.63122 8.82781e-032 -3.18055e-015 1.59028e-015 -0 -3.18056e-015 -0 22.2754 15.8541 20.5969 59.8109 29.9409 -3.37431 -12.3659 20.1365 13.3915 -11.4552 -1.93667 6.93576 3.18055e-015 1.59028e-015 1.59028e-015 -8.82782e-032 1.59028e-015 3.18055e-015 -1.76157 -6.41232 -1.67628 
33.58 95.9966 -27.8477 0.723255 -0.231365 1.51667 -0.334415 2.0658 -0.104549 4.42575 -1.93523 5.23673 -0.480805 5.89646 -4.72985 1.38474 -4.4798 -0.00167388 0.713405 -3.22257 -0.399548 -3.80032 -2.61396 -0.954368 0.245168 10.1443 0.140929 -5.69388 -9.27283 1.60184 2.22688 -7.52978 2.27861 -0.661508 4.13304 -0.197223 -0.661291 4.13304 -0.197233 1.80498 -7.92816 -2.44347 -26.034 8.2441 1.94304 -58.306 43.7716 3.61926 16.9163 2.97664 -20.4315 9.39796 1.42723 -4.57224 3.18055e-015 1.27222e-014 -0 3.18055e-015 9.54167e-015 -1.59028e-015 22.1913 15.8839 20.5766 59.8832 29.8193 -3.69891 -12.7072 20.4841 13.7163 -11.5848 -1.67068 6.67859 4.41391e-032 -3.18055e-015 7.95139e-016 -3.18055e-015 -3.18056e-015 7.95139e-016 -1.74574 -6.31204 -1.66876 
33.5592 95.9924 -27.8467 0.698769 -0.229616 1.47335 -0.333673 2.06611 -0.0838649 4.43956 -1.91675 5.10072 -0.492605 5.85042 -4.67952 1.64271 -4.33611 -0.00400409 0.74685 -3.39854 -0.371209 -3.76726 -2.65162 -0.911123 0.249006 10.1955 0.127507 -5.6998 -9.27982 1.58977 2.21709 -7.49122 2.25767 -0.661964 4.13848 -0.152195 -0.662128 4.13848 -0.152195 1.9219 -7.87478 -2.49646 -26.1113 8.1962 1.86309 -58.2061 43.778 3.56774 16.8212 3.04449 -20.4286 9.12569 1.38864 -4.58351 -0 -3.18055e-015 -0 8.82782e-032 -3.18056e-015 1.59028e-015 22.0845 15.8415 20.5991 59.8251 29.7532 -4.12762 -13.0653 20.2698 14.0754 -11.4838 -1.59068 6.95073 0 0 -7.95139e-016 3.18055e-015 0 -7.95139e-016 -1.83097 -6.27965 -1.67161 
33.5471 95.9924 -27.8412 0.70716 -0.264865 1.49259 -0.339603 2.06616 -0.0983813 4.45512 -1.84748 5.04995 -0.525573 5.78386 -4.62968 1.69369 -4.27394 -0.00704101 0.785814 -3.42006 -0.417782 -3.77567 -2.57 -0.999032 0.266655 10.1207 0.147672 -5.69151 -9.2958 1.64933 2.21461 -7.4897 2.25992 -0.671217 4.14986 -0.184905 -0.670984 4.14986 -0.184948 1.94554 -7.92526 -2.49543 -26.1587 8.21549 1.96357 -58.0829 43.8088 3.55699 16.6417 2.86638 -20.3812 9.04511 1.36717 -4.55657 -3.18055e-015 0 -0 -3.18055e-015 0 -0 22.1276 15.9064 20.5864 59.7096 29.7976 -4.58046 -13.2822 19.86 14.3405 -11.5177 -1.57656 7.09351 -4.41391e-032 3.18055e-015 7.95139e-016 0 4.77083e-015 -0 -1.75001 -6.02759 -1.67177 
33.519 95.9944 -27.851 0.711359 -0.242337 1.53704 -0.343759 2.06627 -0.11068 4.48241 -1.85143 4.92739 -0.543577 5.7165 -4.52543 1.57688 -4.28062 -0.00987974 0.768133 -3.39043 -0.394866 -3.74566 -2.57671 -1.02307 0.24903 10.0944 0.164281 -5.69555 -9.29703 1.63743 2.21352 -7.48926 2.26312 -0.685518 4.13762 -0.209972 -0.685131 4.13763 -0.209996 2.0713 -7.92086 -2.5237 -26.2934 8.18056 2.01214 -58.0755 43.7216 3.66397 16.4302 2.45345 -20.4052 9.14956 1.50273 -4.35263 8.82781e-032 -3.18055e-015 1.59028e-015 -3.18055e-015 -6.36111e-015 1.59028e-015 22.0751 15.9152 20.5826 59.6703 29.861 -5.24795 -13.7094 19.546 14.7402 -11.3935 -1.49677 7.0803 6.36111e-015 0 -7.95139e-016 6.36111e-015 -1.59028e-015 -7.95139e-016 -1.78111 -5.87974 -1.67231 
33.4854 95.9905 -27.8694 0.679294 -0.218681 1.53114 -0.345864 2.06674 -0.107289 4.51194 -1.87316 4.79655 -0.542616 5.67431 -4.47077 1.84454 -4.09623 -0.012245 0.875174 -3.57741 -0.461498 -3.69007 -2.5972 -0.998398 0.250889 10.0618 0.165774 -5.71188 -9.29047 1.61731 2.21253 -7.48855 2.26474 -0.693653 4.13005 -0.201477 -0.68768 4.13005 -0.201472 2.13236 -7.9539 -2.56732 -26.308 8.19083 2.06464 -58.1907 43.6441 3.77647 16.5074 2.46813 -20.4615 9.13621 1.63186 -4.28775 3.53112e-031 -1.27222e-014 1.59028e-015 -6.36111e-015 -1.27222e-014 1.59028e-015 22.113 15.9399 20.4374 59.5617 29.9704 -6.02665 -14.1608 19.123 15.1932 -11.2286 -1.66742 7.0516 6.36111e-015 -1.59028e-015 -7.95139e-016 3.18055e-015 0 -7.95139e-016 -1.8121 -5.82649 -1.68373 
33.4737 95.9851 -27.8886 0.722847 -0.245022 1.51304 -0.347406 2.07878 -0.106085 4.42686 -1.82479 4.84854 -0.476224 5.55927 -4.61416 2.07921 -3.88363 -0.0139914 0.894577 -3.77177 -0.472475 -3.7441 -2.61976 -1.0429 0.273294 10.1217 0.179795 -5.70585 -9.35598 1.65765 2.21124 -7.47817 2.26441 -0.696372 4.15814 -0.199365 -0.690019 4.15815 -0.1994 2.05246 -8.05185 -2.55992 -26.2235 8.30788 2.03277 -58.2621 43.5114 3.80731 16.5269 2.4054 -20.4873 9.08563 1.61524 -4.277 3.18055e-015 6.36111e-015 -3.18055e-015 3.18055e-015 9.54167e-015 -1.59028e-015 22.2025 16.0066 20.3206 59.4053 30.0438 -6.67929 -14.3625 18.8265 15.3947 -11.6461 -1.93136 6.89536 6.36111e-015 1.59028e-015 -7.95139e-016 3.18055e-015 0 -7.95139e-016 -1.74405 -5.82664 -1.71212 
